<svg id="Capa_1" enable-background="new 0 0 512.356 512.356" height="512" viewBox="0 0 512.356 512.356" width="512" xmlns="http://www.w3.org/2000/svg"><path d="m399.179 187.407v-60h-173.179v150h233.179v-30c-33.084 0-60-26.916-60-60z" fill="#4663a2"/><path d="m512.349 64.181c0-35.348-28.655-64.003-64.004-64.003h-64.004l63.925 139.956c0 17.698 14.347 32.044 32.044 32.044 17.698 0 32.044-14.347 32.044-32.044z" fill="#bdf7f7"/><path d="m384.178.178h-64.089l64.089 139.956c0 17.698 14.347 32.044 32.044 32.044 17.698 0 32.044-14.347 32.044-32.044v-75.867c.001-35.395-28.693-64.089-64.088-64.089z" fill="#7cf0ee"/><path d="m320.089.178h-64.089l64.089 139.956c0 17.698 14.347 32.044 32.044 32.044 17.698 0 32.044-14.347 32.044-32.044v-75.867c.001-35.395-28.693-64.089-64.088-64.089z" fill="#bdf7f7"/><path d="m256 .178h-38.826c-29.567 0-57.251 14.524-74.054 38.853l24.686 17.049 88.194 84.054c0 17.698 14.347 32.044 32.044 32.044 17.698 0 32.044-14.347 32.044-32.044v-75.867c.001-35.395-28.693-64.089-64.088-64.089z" fill="#fff"/><path d="m512 247.407h-196c-33.084 0-60-26.916-60-59.981l-100 168.238h336l20-30z" fill="#26abff"/><path d="m256 71.687c-1.623-26.056-18.406-47.572-43.718-55.481-26.677-8.335-54.18 1.137-70.065 24.134l-88.16 127.641c-8.402 12.165-22.244 19.427-37.027 19.427h-17.03v138.257l20 30h236z" fill="#30caf3"/><path d="m512 325.664h-207.796c-14.265 0-27.805-4.537-39.157-13.121l-9.047-6.841-60 186.476 316-88.257z" fill="#30caf3"/><path d="m246.953 312.543c-11.352 8.584-24.891 13.121-39.152 13.121-14.262 0-27.801-4.537-39.152-13.121l-9.047-6.841-9.047 6.841c-11.352 8.584-24.891 13.121-39.153 13.121s-27.8-4.537-39.152-13.121l-9.047-6.841-9.047 6.841c-11.352 8.584-24.891 13.121-39.152 13.121h-15l-.004 78.257 256 88.257v-186.476z" fill="#3ae8e6"/><path d="m512 403.921h-207.796c-14.265 0-27.805-4.537-39.157-13.121l-9.047-6.841-50 64.109 50 64.109h256z" fill="#3ae8e6"/><path d="m246.953 390.8c-11.352 8.584-24.891 13.121-39.152 13.121-14.262 0-27.801-4.537-39.152-13.121l-9.047-6.841-9.047 6.841c-11.352 8.584-24.891 13.121-39.153 13.121s-27.8-4.537-39.152-13.121l-9.047-6.841-9.047 6.841c-11.352 8.584-24.891 13.121-39.152 13.121h-15l-.004 108.257h256v-128.219z" fill="#7cf0ee"/></svg>