<?xml version="1.0" encoding="iso-8859-1"?>
<!-- Generator: Adobe Illustrator 19.0.0, SVG Export Plug-In . SVG Version: 6.00 Build 0)  -->
<svg version="1.1" id="Capa_1" xmlns="http://www.w3.org/2000/svg" xmlns:xlink="http://www.w3.org/1999/xlink" x="0px" y="0px"
	 viewBox="0 0 481.28 481.28" style="enable-background:new 0 0 481.28 481.28;" xml:space="preserve">
<g>
	<g>
		<path d="M477.44,159.457c-2.475-1.429-5.525-1.429-8,0l-55.2,29.44L400,120.737c-0.89-4.328-5.12-7.115-9.448-6.224
			c-0.811,0.167-1.591,0.458-2.313,0.865l-70.96,40l-70.4-87.44c-2.765-3.446-7.8-3.999-11.246-1.234
			c-0.455,0.365-0.869,0.779-1.234,1.234l-70.4,87.36l-70.96-40c-3.85-2.167-8.728-0.803-10.896,3.048
			c-0.406,0.721-0.698,1.502-0.864,2.312l-14.32,68.08l-55.2-29.44c-3.9-2.077-8.745-0.599-10.821,3.301
			c-0.613,1.151-0.935,2.435-0.939,3.739v77.6c0,1.436,0.387,2.845,1.12,4.08l45.28,76.24h-1.76c-9.19,0-16.64,7.45-16.64,16.64
			v58.88c0.044,9.159,7.481,16.56,16.64,16.56h392c9.19,0,16.64-7.45,16.64-16.64v-58.88c0-9.19-7.45-16.64-16.64-16.64h0h-1.76
			l45.28-76.24c0.733-1.235,1.12-2.644,1.12-4.08v-77.52C481.296,163.529,479.839,160.917,477.44,159.457z M323.12,170.577l64-35.68
			l13.52,65.84l-46.08,123.52h-57.92L323.12,170.577z M240.64,85.777l66.4,82.4l-26.88,156.08h-78.72l-26.96-156.4L240.64,85.777z
			 M94.72,134.817l64,35.92l26.48,153.44h-58.16l-46.4-124L94.72,134.817z M16,241.697v-62l50.16,26.8l43.76,117.76H64.64
			L16,241.697z M436.64,340.177c0.353,0,0.64,0.287,0.64,0.64v58.88c0,0.353-0.286,0.64-0.64,0.64h0h-392
			c-0.353,0-0.64-0.286-0.64-0.64v-58.88c0-0.353,0.287-0.64,0.64-0.64H436.64z M465.28,241.697l-48.64,82.56H371.6l43.84-118
			l49.84-26.56V241.697z"/>
	</g>
</g>
<g>
	<g>
		<path d="M240.64,160.897c-17.938,0-32.48,14.542-32.48,32.48c0.044,17.92,14.56,32.436,32.48,32.48
			c17.938,0,32.48-14.542,32.48-32.48C273.12,175.439,258.578,160.897,240.64,160.897z M240.64,209.697
			c-9.102,0-16.48-7.378-16.48-16.48c0.044-9.083,7.397-16.436,16.48-16.48c9.102,0,16.48,7.378,16.48,16.48
			C257.12,202.319,249.742,209.697,240.64,209.697z"/>
	</g>
</g>
<g>
	<g>
		<path d="M74.08,346.097c-13.255,0-24,10.745-24,24s10.745,24,24,24s24-10.745,24-24S87.335,346.097,74.08,346.097z M74.08,378.497
			v0.08c-4.418,0-8-3.582-8-8s3.582-8,8-8s8,3.582,8,8C82.036,374.964,78.467,378.497,74.08,378.497z"/>
	</g>
</g>
<g>
	<g>
		<path d="M185.12,346.097c-13.255,0-24,10.745-24,24s10.745,24,24,24c13.255,0,24-10.745,24-24S198.375,346.097,185.12,346.097z
			 M185.12,378.497v0.08c-4.418,0-8-3.582-8-8s3.582-8,8-8s8,3.582,8,8C193.076,374.964,189.507,378.497,185.12,378.497z"/>
	</g>
</g>
<g>
	<g>
		<path d="M296.16,346.097c-13.255,0-24,10.745-24,24s10.745,24,24,24s24-10.745,24-24S309.415,346.097,296.16,346.097z
			 M296.16,378.497v0.08c-4.418,0-8-3.582-8-8s3.582-8,8-8s8,3.582,8,8C304.116,374.964,300.547,378.497,296.16,378.497z"/>
	</g>
</g>
<g>
	<g>
		<path d="M407.04,346.257c-13.255,0-24,10.745-24,24s10.745,24,24,24s24-10.745,24-24S420.295,346.257,407.04,346.257z
			 M407.52,378.257c-4.418,0-8-3.582-8-8s3.582-8,8-8c4.387,0.044,7.92,3.613,7.92,8h0.08
			C415.52,374.675,411.938,378.257,407.52,378.257z"/>
	</g>
</g>
<g>
</g>
<g>
</g>
<g>
</g>
<g>
</g>
<g>
</g>
<g>
</g>
<g>
</g>
<g>
</g>
<g>
</g>
<g>
</g>
<g>
</g>
<g>
</g>
<g>
</g>
<g>
</g>
<g>
</g>
</svg>
